<svg width="24" height="24" viewBox="0 0 24 24" fill="none" xmlns="http://www.w3.org/2000/svg">
<path opacity="0.5" d="M23.7254 22.3993L16.9542 15.6281C20.0392 11.8746 19.8293 6.30259 16.3237 2.79699C12.5943 -0.932331 6.52632 -0.932331 2.797 2.79699C-0.932332 6.52632 -0.932332 12.5943 2.797 16.3237C6.30165 19.8283 11.8729 20.0405 15.6281 16.9542L22.3993 23.7254C22.7655 24.0915 23.3591 24.0915 23.7253 23.7254C24.0916 23.3591 24.0916 22.7655 23.7254 22.3993ZM14.9976 14.9976C11.9995 17.9957 7.12121 17.9956 4.12309 14.9976C1.12496 11.9994 1.12496 7.12116 4.12309 4.12304C7.12112 1.12506 11.9994 1.12482 14.9976 4.12304C17.9957 7.12116 17.9957 11.9994 14.9976 14.9976Z" fill="black"/>
</svg>
